<?xml version="1.0" encoding="UTF-8"?>
<svg width="200px" height="100px" viewBox="0 0 200 100" version="1.1" xmlns="http://www.w3.org/2000/svg" xmlns:xlink="http://www.w3.org/1999/xlink">
    <title>logo_joomla</title>
    <g id="Redesign" stroke="none" stroke-width="1" fill="none" fill-rule="evenodd">
        <g id="Homepage" transform="translate(-1280.000000, -4327.000000)">
            <g id="logo_joomla" transform="translate(1280.000000, 4327.000000)">
                <rect id="Rectangle" x="0" y="0" width="200" height="100"></rect>
                <g id="Joomla!-Logo" transform="translate(25.000000, 35.000000)" fill="#24343C" fill-rule="nonzero">
                    <g id="Group" transform="translate(35.486443, 5.887850)">
                        <path d="M10.9250399,0.0400534045 L10.9250399,12.576769 C10.9250399,13.6982644 11.0047847,14.7396529 10.0079745,15.5006676 C9.09090909,16.2616822 7.53588517,16.5020027 5.86124402,16.5020027 C3.30940989,16.5020027 0.598086124,15.9012016 0.598086124,15.9012016 L0,17.5033378 C0,17.5033378 3.78787879,18.3044059 6.53907496,18.3444593 C8.85167464,18.3845127 10.8851675,17.8638184 12.0015949,16.5821095 C12.9186603,15.540721 13.1977671,14.3391188 13.1578947,12.2963952 L13.1578947,0.0400534045 L10.9250399,0.0400534045 Z" id="Path"></path>
                        <path d="M29.5454545,6.96929239 C27.8708134,6.04806409 25.8373206,5.56742323 23.5247209,5.56742323 C21.2519936,5.56742323 19.2185008,6.04806409 17.5039872,6.96929239 C15.3508772,8.13084112 14.2743222,9.85313752 14.2743222,12.0160214 C14.2743222,14.1789052 15.3508772,15.9012016 17.5039872,17.0627503 C19.2185008,17.9839786 21.2121212,18.4646195 23.5247209,18.4646195 C25.7974482,18.4646195 27.830941,17.9839786 29.5055821,17.0627503 C31.6586922,15.9012016 32.7352472,14.1789052 32.7352472,12.0160214 C32.7352472,9.81308411 31.6586922,8.13084112 29.5454545,6.96929239 M28.2296651,15.7810414 C26.9138756,16.5420561 25.3588517,16.9025367 23.5247209,16.9025367 C21.6507177,16.9025367 20.0558214,16.5420561 18.7799043,15.8210948 C17.2248804,14.9399199 16.4673046,13.6982644 16.4673046,12.0160214 C16.4673046,10.3738318 17.2647528,9.09212283 18.7799043,8.21094793 C20.0558214,7.48998665 21.6507177,7.12950601 23.5247209,7.12950601 C25.3588517,7.12950601 26.953748,7.48998665 28.2695375,8.21094793 C29.784689,9.09212283 30.5821372,10.3738318 30.5821372,12.0160214 C30.5422648,13.6181575 29.784689,14.8998665 28.2296651,15.7810414 Z" id="Shape"></path>
                        <path d="M49.1626794,6.96929239 C47.4880383,6.04806409 45.4545455,5.56742323 43.1419458,5.56742323 C40.8692185,5.56742323 38.8357257,6.04806409 37.1212121,6.96929239 C34.9681021,8.13084112 33.891547,9.85313752 33.891547,12.0160214 C33.891547,14.1789052 34.9681021,15.9012016 37.1212121,17.0627503 C38.8357257,17.9839786 40.8293461,18.4646195 43.1419458,18.4646195 C45.414673,18.4646195 47.4481659,17.9839786 49.122807,17.0627503 C51.2759171,15.9012016 52.3524721,14.1789052 52.3524721,12.0160214 C52.3524721,9.81308411 51.2759171,8.13084112 49.1626794,6.96929239 M47.84689,15.7810414 C46.5311005,16.5420561 44.9760766,16.9025367 43.1419458,16.9025367 C41.2679426,16.9025367 39.6730463,16.5420561 38.3971292,15.8210948 C36.8421053,14.9399199 36.0845295,13.6982644 36.0845295,12.0160214 C36.0845295,10.3738318 36.8819777,9.09212283 38.3971292,8.21094793 C39.6730463,7.48998665 41.2679426,7.12950601 43.1419458,7.12950601 C44.9760766,7.12950601 46.5709729,7.48998665 47.8867624,8.21094793 C49.4019139,9.09212283 50.199362,10.3738318 50.199362,12.0160214 C50.1594896,13.6181575 49.4019139,14.8998665 47.84689,15.7810414 Z" id="Shape"></path>
                        <path d="M76.2360447,6.64886515 C75.0398724,5.92790387 73.4848485,5.56742323 71.6507177,5.56742323 C69.2982456,5.56742323 67.4242424,6.28838451 65.9888357,7.73030708 C64.6331738,6.28838451 62.7192982,5.56742323 60.3668262,5.56742323 C58.4529506,5.56742323 56.8979266,5.96795728 55.7017544,6.72897196 L55.7017544,5.72763685 L53.5885167,5.72763685 L53.5885167,18.1842457 L55.7017544,18.1842457 L55.7017544,9.6929239 C55.861244,9.09212283 56.2599681,8.53137517 56.8979266,8.05073431 C57.7751196,7.44993324 58.891547,7.12950601 60.2870813,7.12950601 C61.523126,7.12950601 62.5598086,7.36982644 63.4370016,7.89052069 C64.4736842,8.49132176 64.9521531,9.29238985 64.9521531,10.4138852 L64.9521531,18.2643525 L67.0255183,18.2643525 L67.0255183,10.3738318 C67.0255183,9.25233645 67.5039872,8.45126836 68.5406699,7.85046729 C69.4178628,7.36982644 70.4944179,7.0894526 71.7304625,7.0894526 C72.9665072,7.0894526 74.0430622,7.32977303 74.9202552,7.85046729 C75.9569378,8.45126836 76.4354067,9.25233645 76.4354067,10.3738318 L76.4354067,18.2242991 L78.5486443,18.2242991 L78.5486443,10.6542056 C78.5087719,8.89185581 77.7113238,7.53004005 76.2360447,6.64886515" id="Path"></path>
                        <polygon id="Path" points="80.1834131 0.0400534045 80.1834131 18.2242991 82.2966507 18.2242991 82.2966507 0.0400534045"></polygon>
                        <polygon id="Path" points="105.861244 0.0400534045 105.861244 14.0987984 107.974482 14.0987984 107.974482 0.0400534045"></polygon>
                        <path d="M100.318979,5.72763685 L100.318979,7.85046729 C98.5247209,6.32843792 96.1323764,5.52736983 93.1818182,5.52736983 C90.8293461,5.52736983 88.7958533,5.96795728 87.1212121,6.88918558 C85.0478469,8.05073431 83.9712919,9.7329773 83.9712919,11.975968 C83.9712919,14.1789052 85.0478469,15.9012016 87.2009569,17.0226969 C88.8755981,17.9439252 90.9090909,18.3845127 93.261563,18.3845127 C94.4178628,18.3845127 95.5741627,18.2643525 96.6108453,17.9839786 C98.0861244,17.5834446 99.3221691,17.0226969 100.279107,16.2616822 L100.279107,18.1842457 L102.392344,18.1842457 L102.392344,5.72763685 L100.318979,5.72763685 Z M86.2041467,12.0160214 C86.2041467,10.3738318 87.0015949,9.09212283 88.5167464,8.21094793 C89.7926635,7.48998665 91.4274322,7.12950601 93.3014354,7.12950601 C95.6140351,7.12950601 97.4082935,7.69025367 98.6842105,8.811749 C99.800638,9.81308411 100.358852,11.0947931 100.358852,12.6568758 L100.358852,14.1388518 C99.4816587,15.1401869 98.1658692,15.9012016 96.4912281,16.4218959 C95.4944179,16.7423231 94.4178628,16.9025367 93.3014354,16.9025367 C91.3875598,16.9025367 89.7926635,16.5420561 88.5167464,15.8611482 C86.9617225,14.9399199 86.2041467,13.6982644 86.2041467,12.0160214 L86.2041467,12.0160214 Z" id="Shape"></path>
                        <path d="M106.937799,15.8611482 C105.46252,15.8611482 105.263158,16.6221629 105.263158,17.1028037 C105.263158,17.5834446 105.502392,18.3444593 106.937799,18.3444593 C108.413078,18.3444593 108.61244,17.5433912 108.61244,17.1028037 C108.61244,16.6622163 108.373206,15.8611482 106.937799,15.8611482 Z" id="Path"></path>
                        <path d="M114.513557,2.28304406 C114.513557,3.5246996 113.716108,4.56608812 112.280702,4.56608812 C110.845295,4.56608812 110.047847,3.5246996 110.047847,2.28304406 C110.047847,1.04138852 110.845295,0 112.280702,0 C113.716108,0 114.513557,1.04138852 114.513557,2.28304406 Z M110.526316,2.28304406 C110.526316,3.32443258 111.164274,4.12550067 112.280702,4.12550067 C113.397129,4.12550067 114.035088,3.32443258 114.035088,2.28304406 C114.035088,1.24165554 113.397129,0.44058745 112.280702,0.44058745 C111.164274,0.44058745 110.526316,1.24165554 110.526316,2.28304406 Z M112.719298,2.56341789 C113.596491,2.40320427 113.516746,1.08144192 112.519936,1.08144192 L111.443381,1.08144192 L111.443381,3.40453939 L111.881978,3.40453939 L111.881978,2.6034713 L112.280702,2.6034713 L112.91866,3.40453939 L113.397129,3.40453939 L113.397129,3.32443258 L112.719298,2.56341789 Z M112.519936,1.48197597 C113.038278,1.48197597 113.038278,2.24299065 112.519936,2.24299065 L111.881978,2.24299065 L111.881978,1.48197597 L112.519936,1.48197597 Z" id="Shape"></path>
                    </g>
                    <g id="Group">
                        <path d="M5.34290271,15.1001335 L4.784689,14.5393858 C2.99043062,12.7369826 2.47208931,10.2136182 3.11004785,7.9305741 C1.31578947,7.53004005 0,5.92790387 0,4.00534045 C0,1.8024032 1.79425837,0 3.98724083,0 C5.98086124,0 7.61562998,1.44192256 7.93460925,3.36448598 C10.0877193,2.84379172 12.4401914,3.44459279 14.1148325,5.12683578 L14.354067,5.36715621 L11.4035088,8.33110814 L11.1642743,8.09078772 C10.2073365,7.12950601 8.6523126,7.12950601 7.6953748,8.09078772 C6.738437,9.05206943 6.738437,10.6141522 7.6953748,11.5754339 L14.3141946,18.2242991 L11.3636364,21.188251 L8.25358852,18.0640854 L5.34290271,15.1001335 Z" id="Path"></path>
                        <path d="M8.6523126,11.8157543 L15.2711324,5.16688919 C17.0255183,3.40453939 19.5773525,2.84379172 21.8102073,3.48464619 C22.0893142,1.52202937 23.7639553,0.0400534045 25.7575758,0.0400534045 C27.9505582,0.0400534045 29.7448166,1.84245661 29.7448166,4.04539386 C29.7448166,6.08811749 28.2296651,7.77036048 26.2759171,8.01068091 C26.9138756,10.2536716 26.3556619,12.777036 24.6012759,14.5393858 L24.3620415,14.7797063 L21.4912281,11.8157543 L21.7304625,11.5754339 C22.6874003,10.6141522 22.6874003,9.05206943 21.7304625,8.09078772 C20.7735247,7.12950601 19.2185008,7.12950601 18.261563,8.09078772 L11.6427432,14.7396529 L8.6523126,11.8157543 Z" id="Path"></path>
                        <path d="M21.9298246,26.7556742 C19.6570973,27.4365821 17.1052632,26.9158879 15.3110048,25.1134846 L15.0717703,24.8731642 L18.0223285,21.9092123 L18.261563,22.1495327 C19.2185008,23.1108144 20.7735247,23.1108144 21.7304625,22.1495327 C22.6874003,21.188251 22.6874003,19.6261682 21.7304625,18.6648865 L15.1116427,12.0160214 L18.062201,9.05206943 L24.7208931,15.740988 C26.3955343,17.423231 26.9936204,19.8264352 26.4752791,22.0293725 C28.4290271,22.3097463 29.9043062,23.9919893 29.9043062,25.9946595 C29.9043062,28.1975968 28.1100478,30 25.9170654,30 C23.923445,29.9599466 22.2886762,28.5580774 21.9298246,26.7556742 L21.9298246,26.7556742 Z" id="Path"></path>
                        <path d="M20.7735247,18.4245661 L14.1547049,25.0734312 C12.4401914,26.7957276 10.0478469,27.3564753 7.89473684,26.835781 C7.49601276,28.6381842 5.90111643,29.9599466 3.98724083,29.9599466 C1.79425837,29.9599466 0,28.1575434 0,25.9546061 C0,24.0720961 1.31578947,22.4699599 3.07017544,22.0694259 C2.51196172,19.8264352 3.07017544,17.423231 4.784689,15.7009346 L5.02392344,15.4606142 L7.97448166,18.4245661 L7.73524721,18.6648865 C6.77830941,19.6261682 6.77830941,21.188251 7.73524721,22.1495327 C8.69218501,23.1108144 10.2472089,23.1108144 11.2041467,22.1495327 L17.8229665,15.5006676 L20.7735247,18.4245661 Z" id="Path"></path>
                    </g>
                </g>
            </g>
        </g>
    </g>
</svg>