<?xml version="1.0" encoding="UTF-8"?>
<svg width="200px" height="100px" viewBox="0 0 200 100" version="1.1" xmlns="http://www.w3.org/2000/svg" xmlns:xlink="http://www.w3.org/1999/xlink">
    <title>logo_phpBB</title>
    <g id="Page-1" stroke="none" stroke-width="1" fill="none" fill-rule="evenodd">
        <g id="logo_phpBB">
            <rect id="Rectangle" x="0" y="0" width="200" height="100"></rect>
            <g id="PhpBB_logo_cosmic" transform="translate(49.000000, 33.000000)" fill="#24343C">
                <path d="M18.2805953,29.5177842 L18.9570756,29.5177842 L18.9570756,29.172 C18.9570756,28.9093099 18.9889097,28.6962124 19.0525787,28.5327013 C19.1162478,28.3691901 19.2011386,28.2432079 19.3072537,28.154751 C19.4133688,28.0662941 19.5340729,28.0073238 19.6693696,27.9778382 C19.8046663,27.9483525 19.9465931,27.93361 20.0951542,27.93361 C20.3869707,27.93361 20.5991977,27.9523732 20.7318416,27.9899004 L20.7318416,28.7055933 C20.6734783,28.6895103 20.6111366,28.6774482 20.5448147,28.6694067 C20.4784928,28.6613651 20.400234,28.6573444 20.3100362,28.6573444 C20.1880039,28.6573444 20.0832168,28.6868296 19.9956719,28.7458008 C19.9081269,28.8047721 19.8643551,28.9200323 19.8643551,29.0915851 L19.8643551,29.5177842 L20.6363385,29.5177842 L20.6363385,30.2013112 L19.8643551,30.2013112 L19.8643551,33.6752365 L18.9570756,33.6752365 L18.9570756,30.2013112 L18.2805953,30.2013112 L18.2805953,29.5177842 Z M22.939164,33.064083 C23.1407827,33.064083 23.3158699,33.0211955 23.4644311,32.9354191 C23.6129922,32.8496427 23.7350227,32.737063 23.8305263,32.5976763 C23.9260299,32.4582898 23.9963301,32.3014822 24.041429,32.127249 C24.0865279,31.9530157 24.109077,31.7747644 24.109077,31.5924896 C24.109077,31.4155759 24.0865279,31.2386648 24.041429,31.061751 C23.9963301,30.8848373 23.9260299,30.7280297 23.8305263,30.5913237 C23.7350227,30.4546176 23.6129922,30.343378 23.4644311,30.2576017 C23.3158699,30.1718253 23.1407827,30.1289378 22.939164,30.1289378 C22.7375453,30.1289378 22.5624581,30.1718253 22.4138969,30.2576017 C22.2653358,30.343378 22.1433053,30.4546176 22.0478017,30.5913237 C21.9522981,30.7280297 21.881998,30.8848373 21.836899,31.061751 C21.7918001,31.2386648 21.769251,31.4155759 21.769251,31.5924896 C21.769251,31.7747644 21.7918001,31.9530157 21.836899,32.127249 C21.881998,32.3014822 21.9522981,32.4582898 22.0478017,32.5976763 C22.1433053,32.737063 22.2653358,32.8496427 22.4138969,32.9354191 C22.5624581,33.0211955 22.7375453,33.064083 22.939164,33.064083 Z M22.939164,33.7878174 C22.6102072,33.7878174 22.3170687,33.7328678 22.0597396,33.6229668 C21.8024105,33.5130658 21.5848778,33.3616192 21.4071351,33.1686224 C21.2293923,32.9756256 21.0940976,32.7451051 21.0012469,32.4770539 C20.9083962,32.2090028 20.8619716,31.914151 20.8619716,31.5924896 C20.8619716,31.2761893 20.9083962,30.9840179 21.0012469,30.7159668 C21.0940976,30.4479157 21.2293923,30.2173952 21.4071351,30.0243983 C21.5848778,29.8314015 21.8024105,29.6799549 22.0597396,29.5700539 C22.3170687,29.460153 22.6102072,29.4052033 22.939164,29.4052033 C23.2681208,29.4052033 23.5612593,29.460153 23.8185884,29.5700539 C24.0759175,29.6799549 24.2934502,29.8314015 24.4711929,30.0243983 C24.6489357,30.2173952 24.7842304,30.4479157 24.8770811,30.7159668 C24.9699318,30.9840179 25.0163564,31.2761893 25.0163564,31.5924896 C25.0163564,31.914151 24.9699318,32.2090028 24.8770811,32.4770539 C24.7842304,32.7451051 24.6489357,32.9756256 24.4711929,33.1686224 C24.2934502,33.3616192 24.0759175,33.5130658 23.8185884,33.6229668 C23.5612593,33.7328678 23.2681208,33.7878174 22.939164,33.7878174 Z M25.6319605,29.5177842 L26.4835298,29.5177842 L26.4835298,30.3219336 L26.499447,30.3219336 C26.5259758,30.2093521 26.5777061,30.0994528 26.6546395,29.9922324 C26.731573,29.8850119 26.8244223,29.7871747 26.9331903,29.6987178 C27.0419582,29.610261 27.1626623,29.5392285 27.2953062,29.4856183 C27.4279501,29.432008 27.5632447,29.4052033 27.7011944,29.4052033 C27.8073095,29.4052033 27.8802625,29.4078838 27.9200556,29.4132448 C27.9598488,29.4186058 28.0009678,29.4239668 28.0434138,29.4293278 L28.0434138,30.3138921 C27.9797448,30.3031701 27.9147502,30.2937884 27.8484283,30.2857469 C27.7821064,30.2777054 27.7171119,30.2736846 27.6534428,30.2736846 C27.499576,30.2736846 27.3549963,30.3045101 27.2196996,30.3661618 C27.0844028,30.4278136 26.9663516,30.5189496 26.8655422,30.6395726 C26.7647329,30.7601956 26.6851478,30.9089618 26.6267845,31.0858755 C26.5684212,31.2627893 26.53924,31.4665051 26.53924,31.6970291 L26.53924,33.6752365 L25.6319605,33.6752365 L25.6319605,29.5177842 Z M31.9061233,33.6752365 L31.0147611,33.6752365 L31.0147611,33.096249 L30.9988439,33.096249 C30.887423,33.3053289 30.7216207,33.4728583 30.5014319,33.5988423 C30.2812431,33.7248263 30.0570783,33.7878174 29.8289309,33.7878174 C29.2877439,33.7878174 28.8964504,33.6524536 28.6550386,33.381722 C28.4136267,33.1109903 28.2929226,32.7022185 28.2929226,32.1553942 L28.2929226,29.5177842 L29.2002021,29.5177842 L29.2002021,32.0669378 C29.2002021,32.4314873 29.2691759,32.6888125 29.4071255,32.8389212 C29.5450751,32.9890298 29.7387323,33.064083 29.9881027,33.064083 C30.1791099,33.064083 30.3382801,33.0345978 30.4656182,32.9756266 C30.5929563,32.9166553 30.696417,32.8375814 30.7760033,32.7384025 C30.8555896,32.6392236 30.9126256,32.5199426 30.947113,32.380556 C30.9816004,32.2411694 30.9988439,32.0910631 30.9988439,31.9302324 L30.9988439,29.5177842 L31.9061233,29.5177842 L31.9061233,33.6752365 Z M32.7206922,29.5177842 L33.5802201,29.5177842 L33.5802201,30.0967718 L33.6040959,30.0967718 C33.6730707,29.9949123 33.7473501,29.9010959 33.8269364,29.8153195 C33.9065227,29.7295432 33.9953928,29.6571704 34.0935492,29.5981992 C34.1917057,29.5392279 34.3044513,29.4923197 34.4317894,29.457473 C34.5591275,29.4226264 34.7050336,29.4052033 34.869512,29.4052033 C35.1188825,29.4052033 35.3510058,29.4614932 35.5658886,29.5740747 C35.7807717,29.6866562 35.9333101,29.8608868 36.0235079,30.0967718 C36.1773747,29.8823309 36.3551148,29.7134612 36.5567334,29.5901577 C36.758352,29.4668542 37.0103716,29.4052033 37.3127995,29.4052033 C37.7478715,29.4052033 38.0861081,29.5124222 38.32752,29.7268631 C38.5689319,29.941304 38.6896361,30.3004871 38.6896361,30.8044232 L38.6896361,33.6752365 L37.7823566,33.6752365 L37.7823566,31.2467054 C37.7823566,31.0805137 37.7770509,30.9290671 37.7664394,30.792361 C37.7558279,30.6556549 37.7253201,30.5377142 37.6749156,30.4385353 C37.6245108,30.3393564 37.5489049,30.2629629 37.4480956,30.2093527 C37.3472863,30.1557425 37.2093389,30.1289378 37.034249,30.1289378 C36.726515,30.1289378 36.5036769,30.2254347 36.3657274,30.4184315 C36.2277774,30.6114284 36.1588037,30.8848364 36.1588037,31.2386639 L36.1588037,33.6752365 L35.2515242,33.6752365 L35.2515242,31.0054606 C35.2515242,30.7159654 35.1997941,30.497507 35.0963318,30.3500788 C34.9928696,30.2026507 34.8031917,30.1289378 34.5272925,30.1289378 C34.4105659,30.1289378 34.2978203,30.153062 34.1890524,30.2013112 C34.0802844,30.2495604 33.9847822,30.3192526 33.9025431,30.41039 C33.8203039,30.5015274 33.7539829,30.6141072 33.7035783,30.7481328 C33.6531736,30.8821583 33.6279716,31.0349452 33.6279716,31.2064979 L33.6279716,33.6752365 L32.7206922,33.6752365 L32.7206922,29.5177842 Z M50.7281928,32.1992697 C50.7547215,32.4673208 50.8555294,32.6549538 51.0306193,32.7621743 C51.2057091,32.8693947 51.4152834,32.9230041 51.659348,32.9230041 C51.74424,32.9230041 51.8410689,32.916303 51.9498366,32.9029004 C52.0586047,32.8894978 52.160739,32.8640334 52.2562425,32.8265062 C52.3517461,32.7889791 52.4300049,32.7340294 52.4910209,32.6616556 C52.5520373,32.5892818 52.579892,32.4941251 52.5745863,32.3761826 C52.5692805,32.2582401 52.5268348,32.1617431 52.4472486,32.0866888 C52.3676623,32.0116345 52.265528,31.9513239 52.140843,31.9057552 C52.0161576,31.8601865 51.8742308,31.8213197 51.7150582,31.7891535 C51.5558856,31.7569874 51.3940625,31.7221413 51.2295841,31.6846141 C51.0598,31.6470869 50.8966505,31.6015189 50.7401306,31.5479087 C50.5836111,31.4942985 50.4430106,31.4219258 50.3183252,31.3307884 C50.1936402,31.239651 50.0941587,31.1230505 50.0198781,30.9809834 C49.9455976,30.8389163 49.908458,30.6633454 49.908458,30.4542656 C49.908458,30.2291026 49.9628412,30.0401294 50.071609,29.8873402 C50.1803771,29.7345511 50.3183245,29.6112494 50.4854559,29.5174315 C50.6525869,29.4236136 50.8382858,29.3579421 51.0425571,29.3204149 C51.2468288,29.2828878 51.4418125,29.2641245 51.6275138,29.2641245 C51.8397439,29.2641245 52.0426861,29.2869085 52.2363459,29.3324772 C52.430006,29.3780459 52.6050934,29.4517588 52.7616129,29.5536183 C52.9181328,29.6554777 53.0481218,29.788161 53.1515841,29.9516722 C53.2550461,30.1151834 53.3200408,30.312198 53.3465696,30.542722 L52.3994971,30.542722 C52.3570511,30.32292 52.2575696,30.1754942 52.10105,30.1004398 C51.9445302,30.0253855 51.7654637,29.9878589 51.5638451,29.9878589 C51.5001761,29.9878589 51.4245703,29.9932198 51.3370252,30.0039419 C51.2494801,30.014664 51.1672421,30.0347675 51.0903089,30.0642531 C51.0133753,30.0937387 50.948381,30.1366263 50.8953235,30.192917 C50.8422656,30.2492078 50.8157375,30.3229207 50.8157375,30.4140581 C50.8157375,30.5266396 50.8542034,30.6177756 50.931137,30.6874689 C51.0080703,30.7571622 51.1088782,30.8147923 51.2335635,30.860361 C51.3582485,30.9059297 51.5001754,30.9447965 51.659348,30.9769626 C51.8185209,31.0091288 51.9829968,31.0439749 52.1527809,31.0815021 C52.3172592,31.1190292 52.4790824,31.1645972 52.6382549,31.2182075 C52.7974275,31.2718177 52.9393544,31.3441904 53.0640394,31.4353278 C53.1887248,31.5264652 53.2895327,31.6417254 53.3664659,31.781112 C53.4433995,31.9204986 53.4818658,32.0920488 53.4818658,32.2957676 C53.4818658,32.5423747 53.4261559,32.7514514 53.3147351,32.9230041 C53.2033143,33.0945569 53.0587347,33.2339414 52.8809918,33.3411618 C52.7032493,33.4483823 52.5056129,33.5261159 52.288077,33.5743652 C52.0705408,33.6226143 51.8556612,33.6467386 51.6434311,33.6467386 C51.3834488,33.6467386 51.1433671,33.6172534 50.9231782,33.5582822 C50.7029897,33.4993109 50.5119854,33.4095151 50.3501598,33.2888921 C50.1883341,33.1682691 50.0609982,33.0181627 49.9681473,32.8385685 C49.8752968,32.6589742 49.8262191,32.4458768 49.8209133,32.1992697 L50.7281928,32.1992697 Z M56.0665927,33.6467386 C55.7376361,33.6467386 55.4444975,33.5917889 55.1871684,33.481888 C54.9298395,33.371987 54.7123068,33.2205404 54.5345639,33.0275436 C54.3568211,32.8345468 54.2215263,32.6040262 54.1286758,32.3359751 C54.0358249,32.067924 53.9894002,31.7730721 53.9894002,31.4514108 C53.9894002,31.1351105 54.0358249,30.8429391 54.1286758,30.574888 C54.2215263,30.3068368 54.3568211,30.0763163 54.5345639,29.8833195 C54.7123068,29.6903227 54.9298395,29.5388761 55.1871684,29.4289751 C55.4444975,29.3190742 55.7376361,29.2641245 56.0665927,29.2641245 C56.3955497,29.2641245 56.6886883,29.3190742 56.9460171,29.4289751 C57.2033463,29.5388761 57.420879,29.6903227 57.5986219,29.8833195 C57.7763644,30.0763163 57.9116592,30.3068368 58.00451,30.574888 C58.0973605,30.8429391 58.1437852,31.1351105 58.1437852,31.4514108 C58.1437852,31.7730721 58.0973605,32.067924 58.00451,32.3359751 C57.9116592,32.6040262 57.7763644,32.8345468 57.5986219,33.0275436 C57.420879,33.2205404 57.2033463,33.371987 56.9460171,33.481888 C56.6886883,33.5917889 56.3955497,33.6467386 56.0665927,33.6467386 Z M56.0665927,32.9230041 C56.2682117,32.9230041 56.4432987,32.8801166 56.5918598,32.7943402 C56.7404212,32.7085639 56.8624514,32.5959841 56.9579549,32.4565975 C57.0534588,32.3172109 57.1237589,32.1604034 57.1688576,31.9861701 C57.2139567,31.8119369 57.2365057,31.6336856 57.2365057,31.4514108 C57.2365057,31.274497 57.2139567,31.097586 57.1688576,30.9206722 C57.1237589,30.7437584 57.0534588,30.5869509 56.9579549,30.4502448 C56.8624514,30.3135387 56.7404212,30.2022992 56.5918598,30.1165228 C56.4432987,30.0307465 56.2682117,29.9878589 56.0665927,29.9878589 C55.8649741,29.9878589 55.6898867,30.0307465 55.5413257,30.1165228 C55.3927646,30.2022992 55.270734,30.3135387 55.1752305,30.4502448 C55.0797269,30.5869509 55.0094269,30.7437584 54.9643278,30.9206722 C54.9192291,31.097586 54.8966797,31.274497 54.8966797,31.4514108 C54.8966797,31.6336856 54.9192291,31.8119369 54.9643278,31.9861701 C55.0094269,32.1604034 55.0797269,32.3172109 55.1752305,32.4565975 C55.270734,32.5959841 55.3927646,32.7085639 55.5413257,32.7943402 C55.6898867,32.8801166 55.8649741,32.9230041 56.0665927,32.9230041 Z M58.500107,29.3767054 L59.1765871,29.3767054 L59.1765871,29.0309212 C59.1765871,28.7682311 59.2084213,28.5551336 59.2720903,28.3916224 C59.3357593,28.2281112 59.42065,28.1021291 59.526765,28.0136722 C59.6328804,27.9252153 59.7535843,27.8662449 59.8888811,27.8367593 C60.0241776,27.8072737 60.1661045,27.7925311 60.3146656,27.7925311 C60.6064823,27.7925311 60.8187093,27.8112944 60.9513531,27.8488216 L60.9513531,28.5645145 C60.8929898,28.5484315 60.8306482,28.5363693 60.7643261,28.5283278 C60.6980044,28.5202863 60.6197455,28.5162656 60.5295477,28.5162656 C60.4075154,28.5162656 60.3027284,28.5457507 60.2151833,28.604722 C60.1276382,28.6636932 60.0838666,28.7789535 60.0838666,28.9505062 L60.0838666,29.3767054 L60.8558499,29.3767054 L60.8558499,30.0602324 L60.0838666,30.0602324 L60.0838666,33.5341577 L59.1765871,33.5341577 L59.1765871,30.0602324 L58.500107,30.0602324 L58.500107,29.3767054 Z M61.005248,29.3767054 L61.6896869,29.3767054 L61.6896869,28.1302739 L62.5969664,28.1302739 L62.5969664,29.3767054 L63.4167015,29.3767054 L63.4167015,30.0602324 L62.5969664,30.0602324 L62.5969664,32.2796846 C62.5969664,32.3761831 62.6009458,32.4592777 62.6089043,32.5289709 C62.6168631,32.5986643 62.6354327,32.6576346 62.6646145,32.7058838 C62.6937963,32.754133 62.737568,32.7903194 62.7959313,32.814444 C62.8542945,32.8385686 62.9338798,32.8506307 63.0346891,32.8506307 C63.0983581,32.8506307 63.1620261,32.8492905 63.2256951,32.84661 C63.2893641,32.8439294 63.3530325,32.8345478 63.4167015,32.8184647 L63.4167015,33.5261162 C63.3158922,33.5368382 63.217737,33.5475601 63.1222335,33.5582822 C63.0267299,33.5690042 62.9285751,33.5743652 62.8277658,33.5743652 C62.5890066,33.5743652 62.3966759,33.5515812 62.2507675,33.5060124 C62.1048595,33.4604438 61.9907874,33.393432 61.9085484,33.3049751 C61.8263091,33.2165182 61.7705996,33.1052787 61.7414178,32.9712531 C61.7122363,32.8372276 61.6949927,32.6844407 61.6896869,32.512888 L61.6896869,30.0602324 L61.005248,30.0602324 L61.005248,29.3767054 Z M63.7013958,29.3767054 L64.6643851,29.3767054 L65.468203,32.480722 L65.4841202,32.480722 L66.2561035,29.3767054 L67.1713415,29.3767054 L67.9114906,32.480722 L67.9274079,32.480722 L68.7630599,29.3767054 L69.6862566,29.3767054 L68.3969647,33.5341577 L67.4658095,33.5341577 L66.7017847,30.4462241 L66.6858674,30.4462241 L65.9298013,33.5341577 L64.9747704,33.5341577 L63.7013958,29.3767054 Z M73.7194474,32.6093859 C73.7194474,32.7219674 73.7340383,32.8023815 73.7632198,32.8506307 C73.7924016,32.8988799 73.8494375,32.9230041 73.9343295,32.9230041 L74.0298327,32.9230041 C74.066973,32.9230041 74.1094183,32.9176432 74.1571701,32.9069212 L74.1571701,33.5421992 C74.1253355,33.5529212 74.0842166,33.5649834 74.0338118,33.5783859 C73.9834073,33.5917885 73.9316768,33.6038506 73.8786193,33.6145726 C73.8255618,33.6252947 73.7725049,33.6333361 73.7194474,33.6386971 C73.6663899,33.6440581 73.6212919,33.6467386 73.5841516,33.6467386 C73.3984499,33.6467386 73.2445855,33.609212 73.1225532,33.5341577 C73.0005209,33.4591033 72.9209357,33.3277603 72.8837954,33.1401245 C72.7033998,33.3170382 72.4818877,33.4457008 72.2192531,33.5261162 C71.9566182,33.6065315 71.7032723,33.6467386 71.4592073,33.6467386 C71.273506,33.6467386 71.0957659,33.6212741 70.9259818,33.5703444 C70.7561977,33.5194147 70.6063124,33.4443615 70.4763213,33.3451826 C70.3463305,33.2460036 70.2428696,33.1200215 70.1659364,32.9672324 C70.0890028,32.8144432 70.0505368,32.6361919 70.0505368,32.432473 C70.0505368,32.1751439 70.0969612,31.9660672 70.1898121,31.8052365 C70.2826629,31.6444058 70.4046935,31.5184237 70.5559072,31.4272863 C70.7071214,31.3361489 70.876903,31.2704774 71.065257,31.2302697 C71.2536114,31.190062 71.4432894,31.1592366 71.6342965,31.1377925 C71.7987748,31.1056264 71.9552922,31.0828424 72.1038533,31.0694398 C72.2524144,31.0560373 72.3837301,31.0332533 72.4978036,31.0010871 C72.6118774,30.968921 72.7020738,30.9193323 72.7683959,30.8523195 C72.8347176,30.7853067 72.8678781,30.6847891 72.8678781,30.5507635 C72.8678781,30.432821 72.8400234,30.336324 72.7843132,30.2612697 C72.7286026,30.1862154 72.6596288,30.1285853 72.5773895,30.0883776 C72.4951505,30.0481699 72.4036274,30.0213652 72.3028181,30.0079626 C72.2020088,29.9945601 72.1065067,29.9878589 72.0163089,29.9878589 C71.7616328,29.9878589 71.5520585,30.0414683 71.3875802,30.1486888 C71.2231019,30.2559092 71.1302524,30.4220985 71.1090294,30.6472614 L70.2017499,30.6472614 C70.2176672,30.3792103 70.2813352,30.1567312 70.3927563,29.9798174 C70.5041771,29.8029037 70.646104,29.6608387 70.8185408,29.5536183 C70.9909779,29.4463978 71.1859612,29.3713446 71.4034974,29.3284564 C71.6210333,29.2855683 71.8438718,29.2641245 72.0720191,29.2641245 C72.2736377,29.2641245 72.4726005,29.2855683 72.6689133,29.3284564 C72.8652265,29.3713446 73.0416399,29.4410369 73.1981598,29.5375353 C73.3546796,29.6340337 73.4806892,29.7586756 73.5761928,29.9114647 C73.6716963,30.0642539 73.7194474,30.2505466 73.7194474,30.4703485 L73.7194474,32.6093859 Z M72.8121679,31.4514108 C72.6742184,31.5425482 72.5044367,31.5974978 72.3028181,31.6162614 C72.1011995,31.635025 71.8995837,31.6631699 71.6979651,31.7006971 C71.6024616,31.7167801 71.5096125,31.7395642 71.4194144,31.7690498 C71.3292166,31.7985354 71.2496317,31.8387425 71.1806569,31.8896722 C71.1116821,31.9406019 71.0572989,32.0076137 71.0175056,32.0907095 C70.9777126,32.1738054 70.9578163,32.2743231 70.9578163,32.3922656 C70.9578163,32.494125 70.9869974,32.5799001 71.0453607,32.6495933 C71.103724,32.7192867 71.1740241,32.7742363 71.2562634,32.814444 C71.3385024,32.8546517 71.4286992,32.8827966 71.5268554,32.8988797 C71.625012,32.9149627 71.713882,32.9230041 71.7934683,32.9230041 C71.8942776,32.9230041 72.003044,32.9096018 72.1197705,32.8827967 C72.2364971,32.8559916 72.3465898,32.8104235 72.4500521,32.7460913 C72.5535145,32.681759 72.6397315,32.6000046 72.7087063,32.5008257 C72.7776811,32.4016468 72.8121679,32.2796854 72.8121679,32.1349378 L72.8121679,31.4514108 Z M74.7044979,29.3767054 L75.5560671,29.3767054 L75.5560671,30.1808548 L75.5719844,30.1808548 C75.5985131,30.0682733 75.6502433,29.958374 75.7271768,29.8511535 C75.8041104,29.7439331 75.8969595,29.6460959 76.0057276,29.557639 C76.1144954,29.4691821 76.2351996,29.3981497 76.3678434,29.3445394 C76.5004872,29.2909292 76.635782,29.2641245 76.7737315,29.2641245 C76.8798466,29.2641245 76.9527997,29.266805 76.9925931,29.272166 C77.032386,29.277527 77.073505,29.282888 77.115951,29.288249 L77.115951,30.1728133 C77.052282,30.1620912 76.9872876,30.1527096 76.9209656,30.144668 C76.8546438,30.1366265 76.7896492,30.1326058 76.7259801,30.1326058 C76.5721133,30.1326058 76.4275337,30.1634312 76.2922369,30.225083 C76.15694,30.2867347 76.0388888,30.3778708 75.9380795,30.4984938 C75.8372702,30.6191168 75.757685,30.7678829 75.6993217,30.9447967 C75.6409585,31.1217104 75.6117773,31.3254262 75.6117773,31.5559502 L75.6117773,33.5341577 L74.7044979,33.5341577 L74.7044979,29.3767054 Z M78.0771258,31.6926556 C78.0771258,31.8534863 78.0996748,32.0089536 78.1447735,32.1590622 C78.1898726,32.3091709 78.2575199,32.440514 78.3477177,32.5530954 C78.4379155,32.6656769 78.5519876,32.7554727 78.6899372,32.8224855 C78.8278868,32.8894983 78.9923626,32.9230041 79.1833697,32.9230041 C79.4486577,32.9230041 79.662211,32.865374 79.8240366,32.750112 C79.9858619,32.6348501 80.1065661,32.4619597 80.1861524,32.2314357 L81.0456805,32.2314357 C80.9979287,32.4565987 80.9156904,32.657634 80.7989639,32.8345477 C80.6822373,33.0114615 80.5416371,33.1602276 80.3771585,33.2808506 C80.2126801,33.4014736 80.0283079,33.4926096 79.8240366,33.5542614 C79.619765,33.6159132 79.4062117,33.6467386 79.1833697,33.6467386 C78.8597188,33.6467386 78.5732124,33.5931292 78.323842,33.4859087 C78.0744716,33.3786882 77.8635711,33.2285819 77.6911339,33.0355851 C77.5186968,32.8425883 77.3887078,32.6120677 77.301163,32.3440166 C77.2136179,32.0759655 77.1698463,31.7811136 77.1698463,31.4594523 C77.1698463,31.164596 77.2162706,30.8844868 77.3091215,30.6191162 C77.4019723,30.3537455 77.534614,30.1205446 77.7070512,29.9195062 C77.879488,29.7184679 78.0877359,29.5589799 78.3318005,29.4410374 C78.5758651,29.3230948 78.8517604,29.2641245 79.159494,29.2641245 C79.4831449,29.2641245 79.7736308,29.3324765 80.0309599,29.4691826 C80.2882891,29.6058887 80.5018424,29.7868204 80.6716265,30.0119834 C80.8414106,30.2371464 80.9647675,30.4958118 81.0417011,30.7879876 C81.1186343,31.0801633 81.1385306,31.3817163 81.1013904,31.6926556 L78.0771258,31.6926556 Z M80.1941109,31.0895436 C80.1834994,30.9447959 80.1529919,30.8054115 80.1025871,30.6713859 C80.0521826,30.5373603 79.9832089,30.4207598 79.8956638,30.3215809 C79.808119,30.222402 79.7020054,30.1419879 79.57732,30.0803361 C79.452635,30.0186843 79.3133608,29.9878589 79.159494,29.9878589 C79.0003214,29.9878589 78.8557419,30.0160039 78.7257508,30.0722946 C78.59576,30.1285854 78.4843406,30.206319 78.3914901,30.3054979 C78.2986393,30.4046768 78.2243598,30.5212773 78.1686495,30.6553029 C78.112939,30.7893285 78.0824315,30.9340739 78.0771258,31.0895436 L80.1941109,31.0895436 Z" id="Shape"></path>
                <path d="M99.8988175,29.7007576 L99.5740891,29.7007576 L99.5740891,27.7405303 L100.323829,27.7405303 C100.562601,27.7405303 100.742474,27.7847218 100.863451,27.8731061 C100.984429,27.9614903 101.044917,28.1051127 101.044917,28.3039773 C101.044917,28.4807458 100.995572,28.6101637 100.896879,28.6922349 C100.798187,28.774306 100.675619,28.8232322 100.529172,28.8390152 L101.08312,29.7007576 L100.715413,29.7007576 L100.204444,28.8626894 L99.8988175,28.8626894 L99.8988175,29.7007576 Z M100.261749,28.5880682 C100.322238,28.5880682 100.380338,28.5857008 100.436052,28.5809659 C100.491765,28.576231 100.540314,28.5628158 100.581702,28.5407197 C100.623089,28.5186236 100.656516,28.4878474 100.681985,28.4483901 C100.707455,28.4089329 100.720189,28.3529044 100.720189,28.280303 C100.720189,28.220328 100.706659,28.17298 100.679598,28.1382576 C100.652537,28.1035352 100.618314,28.0767046 100.576926,28.0577651 C100.535539,28.0388257 100.489377,28.0269887 100.438439,28.0222538 C100.387501,28.0175189 100.338156,28.0151515 100.290401,28.0151515 L99.8988175,28.0151515 L99.8988175,28.5880682 L100.261749,28.5880682 Z M102,28.6875 C102,28.9526528 101.953042,29.1941277 101.859125,29.4119318 C101.765208,29.6297359 101.637865,29.8159714 101.477092,29.970644 C101.316319,30.1253164 101.13008,30.2452647 100.918369,30.3304924 C100.706658,30.4157201 100.484603,30.4583333 100.252198,30.4583333 C99.9943242,30.4583333 99.7579436,30.4133527 99.5430489,30.3233902 C99.3281542,30.2334276 99.1435068,30.1095336 98.9891009,29.9517045 C98.834695,29.7938755 98.7137191,29.6068508 98.6261691,29.390625 C98.5386195,29.1743992 98.4948454,28.9400265 98.4948454,28.6875 C98.4948454,28.4223472 98.5418032,28.1808723 98.63572,27.9630682 C98.7296371,27.7452641 98.8569801,27.5590286 99.0177534,27.404356 C99.1785265,27.2496836 99.3655615,27.1297353 99.5788646,27.0445076 C99.7921676,26.9592799 100.01661,26.9166667 100.252198,26.9166667 C100.484603,26.9166667 100.706658,26.9592799 100.918369,27.0445076 C101.13008,27.1297353 101.316319,27.2496836 101.477092,27.404356 C101.637865,27.5590286 101.765208,27.7452641 101.859125,27.9630682 C101.953042,28.1808723 102,28.4223472 102,28.6875 Z M101.617967,28.6875 C101.617967,28.4728525 101.582948,28.2755691 101.512908,28.0956439 C101.442868,27.9157188 101.345769,27.7610486 101.221608,27.6316288 C101.097446,27.502209 100.952593,27.401989 100.787045,27.3309659 C100.621496,27.2599428 100.443216,27.2244318 100.252198,27.2244318 C100.057997,27.2244318 99.8773288,27.2599428 99.7101883,27.3309659 C99.5430482,27.401989 99.3973995,27.502209 99.2732379,27.6316288 C99.1490765,27.7610486 99.0519774,27.9157188 98.9819378,28.0956439 C98.9118978,28.2755691 98.8768785,28.4728525 98.8768785,28.6875 C98.8768785,28.8895212 98.9087144,29.0789132 98.9723869,29.2556818 C99.0360595,29.4324504 99.1275871,29.5871206 99.2469734,29.719697 C99.3663593,29.8522734 99.5104162,29.9572282 99.6791484,30.0345644 C99.8478806,30.1119006 100.038895,30.1505682 100.252198,30.1505682 C100.443216,30.1505682 100.621496,30.1150572 100.787045,30.0440341 C100.952593,29.973011 101.097446,29.872791 101.221608,29.7433712 C101.345769,29.6139514 101.442868,29.4600703 101.512908,29.2817235 C101.582948,29.1033766 101.617967,28.9053041 101.617967,28.6875 Z M19.4713309,16.5797753 C19.4713309,18.2352143 19.2696881,19.7569219 18.8663964,21.1449438 C18.4631047,22.5329657 17.8770802,23.7363245 17.1083054,24.7550562 C16.3395305,25.7737879 15.381727,26.5632931 14.2348662,27.1235955 C13.0880054,27.6838979 11.7710256,27.964045 10.2838874,27.964045 C9.14962945,27.964045 8.13511393,27.677531 7.24031045,27.1044944 C6.34550693,26.5314578 5.64605837,25.7992554 5.1419437,24.9078652 L5.1419437,34 L3.55399049,34 C3.10028732,34 2.65919362,33.9172293 2.23069616,33.7516854 C1.80219871,33.5861415 1.4241184,33.3505633 1.09644388,33.0449438 C0.768769356,32.7393243 0.504113135,32.3700396 0.302467277,31.9370787 C0.100821417,31.5041177 0,31.0074934 0,30.447191 L0,17.9932584 C0,16.2868829 0.195341496,14.7206064 0.586030348,13.294382 C0.976719202,11.8681577 1.58794904,10.645698 2.41973822,9.6269663 C3.25152738,8.60823461 4.31015227,7.81872939 5.5956446,7.25842696 C6.88113697,6.69812452 8.41866359,6.41797752 10.2082706,6.41797752 C11.5693801,6.41797752 12.8170452,6.70449152 13.9513031,7.27752809 C15.0855611,7.85056465 16.0622686,8.608235 16.8814549,9.55056179 C17.7006412,10.4928886 18.3370764,11.5752748 18.7907796,12.7977528 C19.2444828,14.0202308 19.4713309,15.2808924 19.4713309,16.5797753 Z M14.2537704,17.9168539 C14.2537704,15.4718979 13.8567861,13.7018781 13.0628055,12.6067416 C12.268825,11.511605 11.0526666,10.964045 9.414294,10.964045 C8.00277296,10.964045 6.92524408,11.517972 6.18167498,12.6258427 C5.43810585,13.7337134 5.06632689,15.1790173 5.06632689,16.9617977 C5.06632689,19.0247294 5.5263246,20.6164738 6.44633382,21.7370787 C7.36634308,22.8576835 8.58250142,23.4179775 10.0948454,23.4179775 C11.3299262,23.4179775 12.3318391,22.9149863 13.1006139,21.9089888 C13.8693888,20.9029912 14.2537704,19.5722929 14.2537704,17.9168539 Z M37.4979144,27.505618 C36.4392736,27.505618 35.6011956,27.212737 34.9836553,26.6269663 C34.3661148,26.0411956 34.0573492,25.1880206 34.0573492,24.0674157 L34.0573492,15.6629213 C34.0573492,14.8224677 33.9502265,14.1029993 33.7359777,13.5044944 C33.521729,12.9059895 33.2318674,12.4220992 32.8663843,12.052809 C32.5009012,11.6835187 32.0724102,11.4097387 31.5808984,11.2314607 C31.0893866,11.0531826 30.5663755,10.964045 30.0118494,10.964045 C29.6085577,10.964045 29.1926693,11.0468157 28.7641719,11.2123596 C28.3356744,11.3779034 27.9386901,11.6516835 27.573207,12.0337079 C27.2077239,12.4157323 26.911561,12.9123565 26.6847094,13.5235955 C26.4578578,14.1348345 26.3444337,14.8988718 26.3444337,15.8157303 L26.3444337,27.505618 L24.6808637,27.505618 C23.4709885,27.505618 22.5888011,27.200003 22.034275,26.588764 C21.4797489,25.977525 21.20249,25.137084 21.20249,24.0674157 L21.20249,0 L22.7904432,0 C24.0003183,0 24.9014097,0.305614921 25.4937445,0.916853931 C26.0860792,1.52809294 26.3822421,2.31759816 26.3822421,3.28539326 L26.3822421,9.16853931 C26.5586822,8.86291982 26.8044344,8.55093791 27.1195061,8.23258426 C27.4345777,7.91423061 27.7811513,7.62134965 28.1592373,7.35393257 C28.5373233,7.08651552 28.9532117,6.8636713 29.4069148,6.68539326 C29.860618,6.50711522 30.3269171,6.41797752 30.805826,6.41797752 C33.4524279,6.41797752 35.5066644,7.18838182 36.9685968,8.72921348 C38.4305291,10.2700452 39.1614846,12.5048543 39.1614846,15.4337079 L39.1614846,27.505618 L37.4979144,27.505618 Z M61.1201428,16.5797753 C61.1201428,18.2352143 60.9185,19.7569219 60.5152081,21.1449438 C60.1119166,22.5329657 59.5258919,23.7363245 58.7571172,24.7550562 C57.9883421,25.7737879 57.0305386,26.5632931 55.883678,27.1235955 C54.736817,27.6838979 53.4198375,27.964045 51.9326992,27.964045 C50.7984413,27.964045 49.7839259,27.677531 48.8891223,27.1044944 C47.9943187,26.5314578 47.29487,25.7992554 46.7907555,24.9078652 L46.7907555,34 L45.2028023,34 C44.7490989,34 44.3080054,33.9172293 43.8795079,33.7516854 C43.4510105,33.5861415 43.0729301,33.3505633 42.7452557,33.0449438 C42.4175812,32.7393243 42.1529248,32.3700396 41.9512789,31.9370787 C41.7496333,31.5041177 41.6488118,31.0074934 41.6488118,30.447191 L41.6488118,17.9932584 C41.6488118,16.2868829 41.8441533,14.7206064 42.2348421,13.294382 C42.6255308,11.8681577 43.2367607,10.645698 44.06855,9.6269663 C44.900339,8.60823461 45.9589641,7.81872939 47.2444564,7.25842696 C48.5299487,6.69812452 50.0674753,6.41797752 51.8570822,6.41797752 C53.2181919,6.41797752 54.4658569,6.70449152 55.6001148,7.27752809 C56.7343727,7.85056465 57.7110802,8.608235 58.5302667,9.55056179 C59.3494529,10.4928886 59.985888,11.5752748 60.4395914,12.7977528 C60.8932944,14.0202308 61.1201428,15.2808924 61.1201428,16.5797753 Z M55.9025823,17.9168539 C55.9025823,15.4718979 55.505598,13.7018781 54.7116174,12.6067416 C53.9176367,11.511605 52.7014785,10.964045 51.0631058,10.964045 C49.6515849,10.964045 48.5740558,11.517972 47.8304867,12.6258427 C47.0869176,13.7337134 46.7151388,15.1790173 46.7151388,16.9617977 C46.7151388,19.0247294 47.1751364,20.6164738 48.0951455,21.7370787 C49.0151547,22.8576835 50.2313133,23.4179775 51.7436571,23.4179775 C52.978738,23.4179775 53.9806507,22.9149863 54.7494257,21.9089888 C55.5182004,20.9029912 55.9025823,19.5722929 55.9025823,17.9168539 Z M81.5286561,19.4067416 C81.5286561,20.7310928 81.2892053,21.9026166 80.8102964,22.9213483 C80.3313874,23.94008 79.6823495,24.799622 78.8631633,25.5 C78.0439768,26.200378 77.0987761,26.7288372 76.0275325,27.0853933 C74.9562889,27.4419493 73.8283491,27.6202247 72.6436797,27.6202247 L69.8458575,27.6202247 C65.0315627,27.6202247 62.6244514,25.54459 62.6244514,21.3932584 L62.6244514,2.40674157 C62.9269199,2.3048684 63.3554111,2.18389583 63.9099371,2.04382023 C64.4644634,1.90374462 65.0630905,1.77003809 65.7058367,1.64269663 C66.3485828,1.51535517 67.003922,1.41348353 67.6718741,1.33707865 C68.3398258,1.26067377 68.9384529,1.22247191 69.4677733,1.22247191 L72.6058713,1.22247191 C73.8409522,1.22247191 74.9751932,1.38164635 76.0086281,1.7 C77.0420634,2.01835365 77.9368533,2.47677603 78.6930252,3.0752809 C79.4491972,3.67378578 80.0352219,4.39962121 80.4511165,5.252809 C80.8670108,6.10599678 81.0749552,7.06741039 81.0749552,8.13707865 C81.0749552,9.5887713 80.7094776,10.7793961 79.9785113,11.7089888 C79.2475449,12.6385814 78.239331,13.2943801 76.9538387,13.6764045 C77.6091876,13.8546825 78.214116,14.1475635 78.7686423,14.5550562 C79.3231683,14.9625489 79.8083714,15.4273382 80.2242661,15.9494382 C80.6401604,16.4715382 80.9615287,17.0381992 81.1883802,17.6494382 C81.4152321,18.2606772 81.5286561,18.8464391 81.5286561,19.4067416 Z M75.8952031,8.59550561 C75.8952031,8.03520318 75.7754775,7.55767987 75.5360232,7.16292135 C75.2965686,6.76816282 74.987803,6.45618091 74.6097171,6.2269663 C74.2316311,5.99775165 73.80314,5.83221026 73.3242311,5.73033709 C72.8453221,5.62846391 72.3664206,5.57752809 71.8875116,5.57752809 L69.9592826,5.57752809 C69.6316081,5.57752809 69.2661306,5.60936296 68.8628387,5.6730337 C68.4595472,5.73670444 68.0814668,5.79400722 67.7285864,5.84494382 L67.7285864,11.7662921 L71.6984695,11.7662921 C72.8579333,11.7662921 73.8472432,11.51798 74.6664298,11.0213483 C75.485616,10.5247166 75.8952031,9.71611048 75.8952031,8.59550561 Z M76.3110956,19.5595506 C76.3110956,18.1333262 75.9519193,17.1528117 75.2335557,16.6179775 C74.5151925,16.0831434 73.3998555,15.8157303 71.8875116,15.8157303 L67.7663951,15.8157303 L67.7663951,21.2022472 C67.7663951,21.6606764 67.9806403,22.0490621 68.4091378,22.3674157 C68.8376352,22.6857694 69.3795504,22.8449438 70.0348996,22.8449438 L72.1521704,22.8449438 C73.5636916,22.8449438 74.6097136,22.5456959 75.2902684,21.947191 C75.9708233,21.3486861 76.3110956,20.552814 76.3110956,19.5595506 Z M101.974978,19.4067416 C101.974978,20.7310928 101.735527,21.9026166 101.256618,22.9213483 C100.777709,23.94008 100.128671,24.799622 99.309485,25.5 C98.4902985,26.200378 97.5450978,26.7288372 96.4738542,27.0853933 C95.4026106,27.4419493 94.2746711,27.6202247 93.0900017,27.6202247 L90.2921792,27.6202247 C85.4778844,27.6202247 83.0707731,25.54459 83.0707731,21.3932584 L83.0707731,2.40674157 C83.373242,2.3048684 83.8017327,2.18389583 84.3562591,2.04382023 C84.9107851,1.90374462 85.5094122,1.77003809 86.1521584,1.64269663 C86.7949045,1.51535517 87.4502436,1.41348353 88.1181957,1.33707865 C88.7861475,1.26067377 89.3847749,1.22247191 89.914095,1.22247191 L93.052193,1.22247191 C94.2872742,1.22247191 95.4215149,1.38164635 96.4549502,1.7 C97.4883851,2.01835365 98.383175,2.47677603 99.1393473,3.0752809 C99.8955192,3.67378578 100.481544,4.39962121 100.897438,5.252809 C101.313333,6.10599678 101.521277,7.06741039 101.521277,8.13707865 C101.521277,9.5887713 101.155799,10.7793961 100.424833,11.7089888 C99.6938669,12.6385814 98.6856527,13.2943801 97.4001603,13.6764045 C98.0555093,13.8546825 98.660438,14.1475635 99.214964,14.5550562 C99.7694899,14.9625489 100.254693,15.4273382 100.670588,15.9494382 C101.086482,16.4715382 101.40785,17.0381992 101.634702,17.6494382 C101.861554,18.2606772 101.974978,18.8464391 101.974978,19.4067416 Z M96.3415248,8.59550561 C96.3415248,8.03520318 96.2217992,7.55767987 95.9823449,7.16292135 C95.7428906,6.76816282 95.4341247,6.45618091 95.0560387,6.2269663 C94.6779528,5.99775165 94.249462,5.83221026 93.7705531,5.73033709 C93.2916441,5.62846391 92.8127422,5.57752809 92.3338333,5.57752809 L90.4056046,5.57752809 C90.0779298,5.57752809 89.7124522,5.60936296 89.3091607,5.6730337 C88.9058688,5.73670444 88.5277885,5.79400722 88.1749084,5.84494382 L88.1749084,11.7662921 L92.1447912,11.7662921 C93.304255,11.7662921 94.2935653,11.51798 95.1127514,11.0213483 C95.9319376,10.5247166 96.3415248,9.71611048 96.3415248,8.59550561 Z M96.7574173,19.5595506 C96.7574173,18.1333262 96.398241,17.1528117 95.6798778,16.6179775 C94.9615142,16.0831434 93.8461775,15.8157303 92.3338333,15.8157303 L88.2127168,15.8157303 L88.2127168,21.2022472 C88.2127168,21.6606764 88.4269624,22.0490621 88.8554598,22.3674157 C89.2839572,22.6857694 89.8258724,22.8449438 90.4812213,22.8449438 L92.5984921,22.8449438 C94.0100133,22.8449438 95.0560356,22.5456959 95.7365901,21.947191 C96.417145,21.3486861 96.7574173,20.552814 96.7574173,19.5595506 Z" id="Shape"></path>
            </g>
        </g>
    </g>
</svg>