<?xml version="1.0" encoding="UTF-8"?>
<svg width="200px" height="100px" viewBox="0 0 200 100" version="1.1" xmlns="http://www.w3.org/2000/svg" xmlns:xlink="http://www.w3.org/1999/xlink">
    <title>logo_drupal</title>
    <g id="Redesign" stroke="none" stroke-width="1" fill="none" fill-rule="evenodd">
        <g id="Homepage" transform="translate(-480.000000, -4327.000000)">
            <g id="logo_drupal" transform="translate(480.000000, 4327.000000)">
                <rect id="Rectangle" x="0" y="0" width="200" height="100"></rect>
                <g id="Wordmark2_blue_RGB" transform="translate(19.000000, 30.000000)" fill="#24343C" fill-rule="nonzero">
                    <path d="M98.7178957,15.1968904 L93.7155119,15.1968904 L93.7236701,24.5553408 C93.7236701,27.290099 92.550963,29.5025422 89.8157783,29.5025422 C87.0792326,29.5025422 85.8956365,27.290099 85.8956365,24.5553408 L85.8956365,15.2057321 L80.9061762,15.2057321 L80.9048065,24.5553408 C80.9048065,29.9595816 84.3794002,34.3395523 89.7851573,34.3395523 C95.1895447,34.3395523 98.7165147,29.9595816 98.7165147,24.5553408 L98.7178957,15.1968904 Z" id="Path"></path>
                    <rect id="Rectangle" x="143.825357" y="9.49420357" width="4.97788648" height="24.3625743"></rect>
                    <polygon id="Path" points="152.478662 10.39294 152.478662 9.51758058 156.35801 9.51758058 156.35801 10.39294 154.938916 10.39294 154.938916 14.2506584 153.898323 14.2506584 153.898323 10.39294"></polygon>
                    <polygon id="Path" points="158.366166 9.51786469 159.473536 12.7721221 159.486608 12.7721221 160.533452 9.51786469 162 9.51786469 162 14.2506584 161.025332 14.2506584 161.025332 10.8963924 161.011693 10.8963924 159.851753 14.2506584 159.049286 14.2506584 157.889346 10.9296339 157.875706 10.9296339 157.875706 14.2506584 156.901607 14.2506584 156.901607 9.51786469"></polygon>
                    <path d="M76.8370806,14.9934638 C72.5462127,14.0032138 69.8395974,18.265521 69.7266809,18.4940492 C69.6715823,18.6062748 69.6695421,18.671573 69.4797462,18.6667914 C69.3226058,18.6634076 69.3049254,18.4940492 69.3049254,18.4940492 L68.772325,15.2335641 L64.3127656,15.2335641 L64.3127656,33.8409412 L69.3117424,33.8409412 L69.3117424,23.7690516 C69.3117424,22.9461114 71.5279208,19.0000559 75.8228608,20.0154614 C77.9948239,20.5296421 78.9165299,21.45121 78.9165299,21.45121 L78.9165299,15.7824039 C78.2635746,15.4237406 77.5636397,15.1581863 76.8370806,14.9934638" id="Path"></path>
                    <path d="M110.346207,19.7081195 C112.363756,19.7076991 114.182859,20.9225837 114.955136,22.7861849 C115.727413,24.6497861 115.300747,26.7950274 113.874125,28.2214276 C112.447502,29.6478278 110.301926,30.0744266 108.438034,29.3022701 C106.574142,28.5301135 105.359068,26.7112946 105.359489,24.6940602 C105.360284,21.9407307 107.592448,19.7089148 110.346207,19.7081195 M105.500969,39.969554 L105.500969,33.274455 L105.50233,33.2758244 L105.503688,30.7682222 C105.503688,30.7682222 105.511173,30.5675998 105.692106,30.5655428 C105.853321,30.5635086 105.889378,30.6702962 105.928831,30.7682222 C106.30771,31.7115449 108.391927,35.3032716 113.017456,34.1769758 C117.918581,32.794724 120.958868,27.9061388 120.030899,22.899813 C119.10293,17.8934871 114.51245,14.4188945 109.441416,14.8844987 C104.370381,15.3501028 100.489587,19.6024974 100.48906,24.6940744 L100.48906,39.969554 L105.500969,39.969554 Z" id="Shape"></path>
                    <path d="M136.935218,24.694134 C136.935639,26.7113052 135.72064,28.5300801 133.856834,29.3022774 C131.993028,30.0744747 129.847506,29.6480035 128.420829,28.2217477 C126.994151,26.7954918 126.567314,24.6503647 127.339372,22.7867412 C128.111429,20.9231176 129.930318,19.7080545 131.947804,19.7081935 C134.701769,19.7087643 136.934263,21.9405991 136.935218,24.694134 M136.793048,33.8492204 L141.804945,33.8492204 L141.804945,24.694134 C141.804528,19.6027638 137.924004,15.350448 132.853189,14.8847129 C127.782375,14.4189778 123.19197,17.8932709 122.26385,22.8993586 C121.33573,27.9054463 124.375687,32.7939537 129.27655,34.1763735 C133.902087,35.3033171 135.986296,31.7109397 136.365177,30.7682819 C136.404627,30.6703558 136.440002,30.5635682 136.601899,30.5649377 C136.782832,30.5676566 136.790317,30.7682819 136.790317,30.7682819" id="Shape"></path>
                    <path d="M50.0116314,13.7011708 L48.0022417,13.7011708 L48.0022417,29.5894474 L50.066048,29.6424975 C54.2990923,29.6424975 57.0254396,29.2575638 57.0254396,21.6470252 C57.0254396,14.3493345 54.6188003,13.7011708 50.0116286,13.7011708 M48.6545814,33.8102653 L42.9685747,33.8102653 L42.9685747,9.48443 L49.069517,9.48443 C56.4567678,9.48443 62.0597914,10.839916 62.0597914,21.6470252 C62.0597914,32.3507306 56.1248324,33.8102653 48.6545814,33.8102653" id="Shape"></path>
                    <path d="M21.6105906,8.52034986 C18.795344,5.70687189 16.1093275,3.02483991 15.3099323,0 C14.5105002,3.02483991 11.8240518,5.70687189 9.00928255,8.52034986 C4.78708463,12.7392158 0,17.5206615 0,24.692006 C0,30.1610255 2.91814209,35.2146079 7.65519058,37.9491177 C12.3922391,40.6836274 18.2285235,40.6836274 22.965572,37.9491177 C27.7026205,35.2146079 30.6207626,30.1610255 30.6207626,24.692006 C30.6207626,17.5211303 25.834073,12.7392158 21.6105906,8.52034986 M6.50739015,28.2590204 C5.56862319,28.2271455 2.10400634,22.2563333 8.53142827,15.8989026 L12.7847104,20.544166 C12.8585529,20.6171039 12.8976935,20.7181214 12.8922692,20.8217628 C12.886845,20.9254041 12.837373,21.0217853 12.75632,21.086619 C11.7413812,22.1273961 7.4154565,26.4647467 6.87777524,27.9644979 C6.76679384,28.2740558 6.60469779,28.2623474 6.50739015,28.2590204 M15.3104012,36.1283938 C13.9138617,36.1283938 12.5745175,35.5737242 11.5870156,34.5863751 C10.5995136,33.5990261 10.0447604,32.2598901 10.0447604,30.8635685 C10.0642069,29.587007 10.5283457,28.357198 11.3572116,27.386022 C12.3066714,26.2251948 15.3096965,22.9602604 15.3096965,22.9602604 C15.3096965,22.9602604 18.2667473,26.2731194 19.2550945,27.3749415 C20.1160615,28.3318508 20.5873321,29.5764861 20.5760334,30.8635685 C20.576035,33.7712463 18.2185325,36.1283938 15.3104012,36.1283938 M25.3888146,27.5907271 C25.2753241,27.8388905 25.0178783,28.2531875 24.6704021,28.2658364 C24.0510335,28.2883894 23.9848499,27.971078 23.5270573,27.2936589 C22.5219845,25.8065537 13.7508277,16.6410886 12.1102432,14.8685042 C10.667198,13.3094325 11.907035,12.2102754 12.4821542,11.6342685 C13.2036982,10.9115443 15.3098556,8.80700521 15.3098556,8.80700521 C15.3098556,8.80700521 21.5899152,14.7645833 24.2059517,18.8352491 C26.8219882,22.9059148 25.9204206,26.4283316 25.3888146,27.5907271" id="Shape"></path>
                </g>
            </g>
        </g>
    </g>
</svg>