<?xml version="1.0" encoding="UTF-8"?>
<svg width="200px" height="100px" viewBox="0 0 200 100" version="1.1" xmlns="http://www.w3.org/2000/svg" xmlns:xlink="http://www.w3.org/1999/xlink">
    <title>logo_wordpress</title>
    <g id="Redesign" stroke="none" stroke-width="1" fill="none" fill-rule="evenodd">
        <g id="Homepage" transform="translate(-280.000000, -4327.000000)">
            <g id="logo_wordpress" transform="translate(280.000000, 4327.000000)">
                <rect id="Rectangle" x="0" y="0" width="200" height="100"></rect>
                <g id="WordPress_logo" transform="translate(19.000000, 32.000000)" fill="#24343C" fill-rule="nonzero">
                    <path d="M93.957,14.563788 L87.5799,14.563788 L87.5799,15.2447622 C89.5746,15.2447622 89.8953,15.6750896 89.8953,18.2214197 L89.8953,22.8118802 C89.8953,25.3579083 89.5749,25.8241718 87.5799,25.8241718 C86.0484,25.6091591 85.0149,24.7841385 83.5899,23.2062715 L81.9513,21.4133918 C84.1599,21.0183965 85.3353,19.6202101 85.3353,18.0420411 C85.3353,16.0700848 83.6613,14.563788 80.526,14.563788 L74.256,14.563788 L74.256,15.2447622 C76.2507,15.2447622 76.5714,15.6750896 76.5714,18.2214197 L76.5714,22.8118802 C76.5714,25.3579083 76.2507,25.8241718 74.256,25.8241718 L74.256,26.505448 L81.3453,26.505448 L81.3453,25.8241718 C79.3506,25.8241718 79.0299,25.3579083 79.0299,22.8118802 L79.0299,21.5212001 L79.6353,21.5212001 L83.5899,26.505448 L93.957,26.505448 C99.0513,26.505448 101.2602,23.7803433 101.2602,20.5164989 C101.2602,17.2532586 99.0516,14.563788 93.957,14.563788 Z M79.0302,20.4086906 L79.0302,15.6397574 L80.4906,15.6397574 C82.0935,15.6397574 82.8063,16.751361 82.8063,18.0423431 C82.8063,19.297691 82.0935,20.4089926 80.4906,20.4089926 L79.0302,20.4089926 L79.0302,20.4086906 Z M94.0641,25.3938444 L93.8145,25.3938444 C92.5323,25.3938444 92.3541,25.0713254 92.3541,23.4215862 L92.3541,15.6397574 C92.3541,15.6397574 93.9216,15.6397574 94.0641,15.6397574 C97.7691,15.6397574 98.4456,18.3648621 98.4456,20.4808648 C98.4456,22.6681358 97.7688,25.3938444 94.0641,25.3938444 Z" id="Shape"></path>
                    <path d="M54.4134,21.7362128 L56.8716,14.4200436 C57.5844,12.3043429 57.2637,11.6949389 54.9837,11.6949389 L54.9837,10.9774246 L61.6812,10.9774246 L61.6812,11.6949389 C59.4369,11.6949389 58.9026,12.2327726 58.0119,14.8506729 L53.9502,27.1151539 L53.4873,27.1151539 L49.8531,15.8904043 L46.1484,27.1151539 L45.6852,27.1151539 L41.7309,14.8506729 C40.8759,12.2327726 40.3059,11.6949389 38.2395,11.6949389 L38.2395,10.9774246 L46.1484,10.9774246 L46.1484,11.6949389 C44.0463,11.6949389 43.476,12.1968365 44.2245,14.4200436 L46.6113,21.7362128 L50.2095,10.9774246 L50.8866,10.9774246 L54.4134,21.7362128 Z" id="Path"></path>
                    <path d="M66.5256,26.9714094 C62.607,26.9714094 59.4006,24.0669262 59.4006,20.516197 C59.4006,17.0020078 62.6073,14.0969206 66.5256,14.0969206 C70.4445,14.0969206 73.6506,17.0020078 73.6506,20.516197 C73.6506,24.0669262 70.4445,26.9714094 66.5256,26.9714094 Z M66.5256,15.2094301 C63.2484,15.2094301 62.1081,18.1854835 62.1081,20.5164989 C62.1081,22.8837524 63.2484,25.8241718 66.5256,25.8241718 C69.8391,25.8241718 70.9791,22.8837524 70.9791,20.5164989 C70.9791,18.1854835 69.8391,15.2094301 66.5256,15.2094301 Z" id="Shape"></path>
                    <path d="M110.0592,25.7882357 L110.0592,26.505448 L101.901,26.505448 L101.901,25.7882357 C104.2881,25.7882357 104.7156,25.1788317 104.7156,21.5921664 L104.7156,15.8547701 C104.7156,12.2681048 104.2881,11.6946369 101.901,11.6946369 L101.901,10.9771227 L109.2753,10.9771227 C112.9446,10.9771227 114.9759,12.8778107 114.9759,15.4244428 C114.9759,17.8989006 112.9446,19.8352228 109.2753,19.8352228 L107.2446,19.8352228 L107.2446,21.5918644 C107.2446,25.1788317 107.6721,25.7882357 110.0592,25.7882357 Z M109.2753,12.2681048 L107.2446,12.2681048 L107.2446,18.5083046 L109.2753,18.5083046 C111.2706,18.5083046 112.1967,17.1098161 112.1967,15.4244428 C112.1967,13.7031333 111.2706,12.2681048 109.2753,12.2681048 Z" id="Shape"></path>
                    <path d="M139.4499,23.1347012 L139.2717,23.7800413 C138.9513,24.9635171 138.5589,25.3938444 136.0296,25.3938444 L135.5307,25.3938444 C133.6785,25.3938444 133.3578,24.9635171 133.3578,22.417489 L133.3578,20.7680517 C136.1367,20.7680517 136.3506,21.0186985 136.3506,22.8837524 L137.0274,22.8837524 L137.0274,17.5401435 L136.3506,17.5401435 C136.3506,19.4048954 136.1367,19.6558442 133.3578,19.6558442 L133.3578,15.6397574 L135.3168,15.6397574 C137.8467,15.6397574 138.2382,16.0700848 138.5589,17.2535606 L138.7374,17.9345347 L139.3071,17.9345347 L139.0581,14.563788 L128.5839,14.563788 L128.5839,15.2447622 C130.5786,15.2447622 130.8996,15.6750896 130.8996,18.2214197 L130.8996,22.8118802 C130.8996,25.1410837 130.6272,25.7278389 129.0543,25.8114885 C127.5594,25.5816785 126.5331,24.7608857 125.1288,23.2062715 L123.4899,21.4133918 C125.6988,21.0183965 126.8745,19.6202101 126.8745,18.0420411 C126.8745,16.0700848 125.2002,14.563788 122.0652,14.563788 L115.7952,14.563788 L115.7952,15.2447622 C117.7899,15.2447622 118.1106,15.6750896 118.1106,18.2214197 L118.1106,22.8118802 C118.1106,25.3579083 117.7902,25.8241718 115.7952,25.8241718 L115.7952,26.505448 L122.8848,26.505448 L122.8848,25.8241718 C120.8901,25.8241718 120.5691,25.3579083 120.5691,22.8118802 L120.5691,21.5212001 L121.1748,21.5212001 L125.1291,26.505448 L139.7709,26.505448 L139.9848,23.1350032 L139.4499,23.1350032 L139.4499,23.1347012 Z M120.5688,20.4086906 L120.5688,15.6397574 L122.0292,15.6397574 C123.6324,15.6397574 124.3452,16.751361 124.3452,18.0423431 C124.3452,19.297691 123.6324,20.4089926 122.0292,20.4089926 L120.5688,20.4089926 L120.5688,20.4086906 Z" id="Shape"></path>
                    <path d="M146.6817,26.9714094 C145.2567,26.9714094 144.0096,26.218563 143.4753,25.7519976 C143.2971,25.9316781 142.9767,26.4695118 142.9056,26.9714094 L142.2285,26.9714094 L142.2285,22.0230977 L142.941,22.0230977 C143.2263,24.3897472 144.8646,25.7882357 146.9667,25.7882357 C148.1067,25.7882357 149.0331,25.1428956 149.0331,24.0672282 C149.0331,23.1350032 148.2138,22.417489 146.7531,21.7362128 L144.7224,20.7680517 C143.2971,20.0861716 142.2285,18.9026958 142.2285,17.3251308 C142.2285,15.6038213 143.8317,14.1337626 146.0406,14.1337626 C147.2163,14.1337626 148.2135,14.56409 148.8195,15.0659876 C148.9974,14.9225452 149.1756,14.5278519 149.2827,14.0972226 L149.9595,14.0972226 L149.9595,18.329228 L149.2113,18.329228 C148.9617,16.6435526 148.0356,15.2450642 146.1477,15.2450642 C145.1502,15.2450642 144.2235,15.818834 144.2235,16.7157268 C144.2235,17.6479518 144.9717,18.1498494 146.682,18.9389339 L148.641,19.907095 C150.3513,20.7318136 151.0278,22.0593358 151.0278,23.1350032 C151.0278,25.3938444 149.0685,26.9714094 146.6817,26.9714094 Z" id="Path"></path>
                    <path d="M157.6542,26.9714094 C156.2289,26.9714094 154.9818,26.218563 154.4478,25.7519976 C154.2696,25.9316781 153.9492,26.4695118 153.8781,26.9714094 L153.201,26.9714094 L153.201,22.0230977 L153.9135,22.0230977 C154.1985,24.3897472 155.8371,25.7882357 157.9392,25.7882357 C159.0792,25.7882357 160.0056,25.1428956 160.0056,24.0672282 C160.0056,23.1350032 159.1863,22.417489 157.7253,21.7362128 L155.6946,20.7680517 C154.2696,20.0861716 153.2007,18.9026958 153.2007,17.3251308 C153.2007,15.6038213 154.8039,14.1337626 157.0128,14.1337626 C158.1885,14.1337626 159.1857,14.56409 159.7917,15.0659876 C159.9696,14.9225452 160.1478,14.5278519 160.2543,14.0972226 L160.9314,14.0972226 L160.9314,18.329228 L160.1835,18.329228 C159.9339,16.6435526 159.0078,15.2450642 157.1199,15.2450642 C156.1224,15.2450642 155.1957,15.818834 155.1957,16.7157268 C155.1957,17.6479518 155.9439,18.1498494 157.6542,18.9389339 L159.6132,19.907095 C161.3235,20.7318136 162,22.0593358 162,23.1350032 C162,25.3938444 160.0407,26.9714094 157.6542,26.9714094 Z" id="Path"></path>
                    <g id="Group">
                        <path d="M2.6124,18.499547 C2.6124,24.7814206 6.2391,30.2101891 11.4981,32.7827918 L3.9774,12.0407107 C3.1026,14.0144789 2.6124,16.19873 2.6124,18.499547 Z" id="Path"></path>
                        <path d="M29.022,17.6986851 C29.022,15.7372983 28.3221,14.3789737 27.7218,13.3217273 C26.9226,12.0144381 26.1735,10.9073643 26.1735,9.60007509 C26.1735,8.14118982 27.2727,6.78316724 28.821,6.78316724 C28.8909,6.78316724 28.9572,6.79192478 29.0253,6.79585057 C26.2203,4.20905463 22.4832,2.62967769 18.3786,2.62967769 C12.8706,2.62967769 8.0247,5.47436808 5.2056,9.78307746 C5.5755,9.79425088 5.9241,9.80210246 6.2202,9.80210246 C7.8693,9.80210246 10.422,9.60067906 10.422,9.60067906 C11.2719,9.55024771 11.3721,10.8068036 10.5231,10.9079683 C10.5231,10.9079683 9.669,11.009133 8.7186,11.0592623 L14.46,28.2497082 L17.9103,17.8333701 L15.4539,11.0586584 C14.6049,11.008529 13.8006,10.9073643 13.8006,10.9073643 C12.951,10.857235 13.0506,9.54964374 13.9002,9.60007509 C13.9002,9.60007509 16.5039,9.80149849 18.0531,9.80149849 C19.7019,9.80149849 22.2549,9.60007509 22.2549,9.60007509 C23.1054,9.54964374 23.2053,10.8061997 22.356,10.9073643 C22.356,10.9073643 21.5001,11.008529 20.5515,11.0586584 L26.2491,28.1189491 L27.8217,22.8290933 C28.5033,20.6339708 29.022,19.0573117 29.022,17.6986851 Z" id="Path"></path>
                        <path d="M18.6552,19.887768 L13.9248,33.7243783 C15.3372,34.1423243 16.8309,34.3709263 18.3786,34.3709263 C20.2146,34.3709263 21.9753,34.0514271 23.6142,33.4713156 C23.5719,33.4033692 23.5335,33.331195 23.502,33.2526791 L18.6552,19.887768 Z" id="Path"></path>
                        <path d="M32.2128,10.8853195 C32.2806,11.3908409 32.319,11.9335064 32.319,12.5172417 C32.319,14.127723 32.0202,15.9381177 31.1202,18.2017907 L26.3043,32.2177795 C30.9915,29.4664022 34.1442001,24.3547171 34.1442001,18.499849 C34.1445,15.7406201 33.4443,13.1459726 32.2128,10.8853195 Z" id="Path"></path>
                        <path d="M18.3786,0 C8.2449,0 0,8.29882553 0,18.499547 C0,28.7014765 8.2449,37 18.3786,37 C28.512,37 36.7581,28.7014765 36.7581,18.499547 C36.7581,8.29882553 28.512,0 18.3786,0 Z M18.3786,36.1520286 C8.7096,36.1520286 0.8427,28.2330991 0.8427,18.499547 C0.8427,8.76659892 8.7093,0.848273385 18.3786,0.848273385 C28.0473,0.848273385 35.9136,8.76659892 35.9136,18.499547 C35.9136,28.2330991 28.0473,36.1520286 18.3786,36.1520286 Z" id="Shape"></path>
                    </g>
                </g>
            </g>
        </g>
    </g>
</svg>