<svg width="40" height="43" viewBox="0 0 40 43" fill="none" xmlns="http://www.w3.org/2000/svg">
<path fill-rule="evenodd" clip-rule="evenodd" d="M0 42.7952H12.7472L12.7176 38.7952H6.9536L20 16.3616L33.0464 38.7952H27.2496V42.7952H40L20 8.40477L0 42.7952Z" fill="#1B262C"/>
<path fill-rule="evenodd" clip-rule="evenodd" d="M19.6144 39.4184L14.0048 33.8232L19.6144 28.2L25.2232 33.8232L19.6144 39.4184Z" fill="#008673"/>
<circle cx="20.4049" cy="12.8" r="12.8" fill="white"/>
<path fill-rule="evenodd" clip-rule="evenodd" d="M20.0048 2.40002C14.482 2.40002 10.0048 6.87722 10.0048 12.4C10.0048 17.9228 14.482 22.4 20.0048 22.4C25.5276 22.4 30.0048 17.9228 30.0048 12.4C30.0048 6.87722 25.5276 2.40002 20.0048 2.40002ZM20.0048 6.40002C23.3132 6.40002 26.0048 9.09162 26.0048 12.4C26.0048 15.7084 23.3132 18.4 20.0048 18.4C16.6964 18.4 14.0048 15.7084 14.0048 12.4C14.0048 9.09162 16.6964 6.40002 20.0048 6.40002Z" fill="#1B262C"/>
</svg>
