<svg width="41" height="40" viewBox="0 0 41 40" fill="none" xmlns="http://www.w3.org/2000/svg">
<path fill-rule="evenodd" clip-rule="evenodd" d="M20.1552 2.75867C10.6331 2.75867 2.91379 10.478 2.91379 20C2.91379 29.5221 10.6331 37.2414 20.1552 37.2414C29.6772 37.2414 37.3965 29.5221 37.3965 20C37.3965 10.478 29.6772 2.75867 20.1552 2.75867ZM20.1552 6.20694C27.7607 6.20694 33.9483 12.3945 33.9483 20C33.9483 27.6056 27.7607 33.7931 20.1552 33.7931C12.5496 33.7931 6.36206 27.6056 6.36206 20C6.36206 12.3945 12.5496 6.20694 20.1552 6.20694Z" fill="#1B262C"/>
<path fill-rule="evenodd" clip-rule="evenodd" d="M18.7758 3.44828H22.2241V0H18.7758V3.44828Z" fill="#1B262C"/>
<path fill-rule="evenodd" clip-rule="evenodd" d="M18.7758 40H22.2241V36.5518H18.7758V40Z" fill="#1B262C"/>
<path fill-rule="evenodd" clip-rule="evenodd" d="M37.0517 18.2759V21.7242H40.5V18.2759H37.0517Z" fill="#1B262C"/>
<path fill-rule="evenodd" clip-rule="evenodd" d="M0.499997 18.2759L0.499997 21.7242H3.94827L3.94827 18.2759H0.499997Z" fill="#1B262C"/>
<path fill-rule="evenodd" clip-rule="evenodd" d="M33.423 30.4847L30.9847 32.923L33.423 35.3613L35.8613 32.923L33.423 30.4847Z" fill="#1B262C"/>
<path fill-rule="evenodd" clip-rule="evenodd" d="M7.57702 4.63873L5.13872 7.07703L7.57702 9.51533L10.0153 7.07703L7.57702 4.63873Z" fill="#1B262C"/>
<path fill-rule="evenodd" clip-rule="evenodd" d="M10.0153 32.923L7.57703 30.4847L5.13873 32.923L7.57703 35.3613L10.0153 32.923Z" fill="#1B262C"/>
<path fill-rule="evenodd" clip-rule="evenodd" d="M35.8613 7.07696L33.423 4.63866L30.9847 7.07696L33.423 9.51526L35.8613 7.07696Z" fill="#1B262C"/>
<path fill-rule="evenodd" clip-rule="evenodd" d="M20.1634 24.8434L15.3276 20.0199L20.1634 15.1724L24.9986 20.0199L20.1634 24.8434Z" fill="#008673"/>
</svg>
