<?xml version="1.0" encoding="UTF-8"?>
<svg width="50px" height="51px" viewBox="0 0 50 51" version="1.1" xmlns="http://www.w3.org/2000/svg" xmlns:xlink="http://www.w3.org/1999/xlink">
    <title>sucuri_icons__ddos</title>
    <g id="Redesign" stroke="none" stroke-width="1" fill="none" fill-rule="evenodd">
        <g id="Icons" transform="translate(-182.000000, -306.000000)">
            <g id="sucuri_icons__ddos" transform="translate(182.000000, 306.614000)">
                <polyline id="Fill-1" fill="#008673" points="42.989 0 50 6.995 42.989 14.023 35.977 6.995 42.989 0"></polyline>
                <polygon id="Fill-2" fill="#1B262C" points="0 50 5 50 5 45 0 45"></polygon>
                <polygon id="Fill-3" fill="#1B262C" points="0 40 5 40 5 35 0 35"></polygon>
                <polygon id="Fill-4" fill="#1B262C" points="0 30 5 30 5 25 0 25"></polygon>
                <polygon id="Fill-5" fill="#1B262C" points="0 20 5 20 5 15 0 15"></polygon>
                <polygon id="Fill-6" fill="#1B262C" points="0 10 5 10 5 5 0 5"></polygon>
                <polygon id="Fill-7" fill="#1B262C" points="10 50 15 50 15 45 10 45"></polygon>
                <polygon id="Fill-8" fill="#1B262C" points="10 40 15 40 15 35 10 35"></polygon>
                <polygon id="Fill-9" fill="#1B262C" points="10 30 15 30 15 25 10 25"></polygon>
                <polygon id="Fill-10" fill="#1B262C" points="10 20 15 20 15 15 10 15"></polygon>
                <polygon id="Fill-11" fill="#1B262C" points="10 10 15 10 15 5 10 5"></polygon>
                <polygon id="Fill-12" fill="#1B262C" points="20 50 25 50 25 45 20 45"></polygon>
                <polygon id="Fill-13" fill="#1B262C" points="20 40 25 40 25 35 20 35"></polygon>
                <polygon id="Fill-14" fill="#1B262C" points="20 30 25 30 25 25 20 25"></polygon>
                <polygon id="Fill-15" fill="#1B262C" points="20 20 25 20 25 15 20 15"></polygon>
                <polygon id="Fill-16" fill="#1B262C" points="20 10 25 10 25 5 20 5"></polygon>
                <polygon id="Fill-17" fill="#1B262C" points="30 50 35 50 35 45 30 45"></polygon>
                <polygon id="Fill-18" fill="#1B262C" points="30 40 35 40 35 35 30 35"></polygon>
                <polygon id="Fill-19" fill="#1B262C" points="30 30 35 30 35 25 30 25"></polygon>
                <polygon id="Fill-20" fill="#1B262C" points="30 20 35 20 35 15 30 15"></polygon>
                <polygon id="Fill-21" fill="#1B262C" points="40 50 45 50 45 45 40 45"></polygon>
                <polygon id="Fill-22" fill="#1B262C" points="40 40 45 40 45 35 40 35"></polygon>
                <polygon id="Fill-23" fill="#1B262C" points="40 30 45 30 45 25 40 25"></polygon>
            </g>
        </g>
    </g>
</svg>