<?xml version="1.0" encoding="UTF-8"?>
<svg width="168px" height="40px" viewBox="0 0 168 40" version="1.1" xmlns="http://www.w3.org/2000/svg" xmlns:xlink="http://www.w3.org/1999/xlink">
    <title>Logo_dark</title>
    <defs>
        <path d="M20.5773174,21.8605456 L27.639122,25.930381 L17.3504632,31.8603293 L10.2890921,27.7904939 L3.22772101,31.8603293 L17.3504632,40 L34.7004931,29.9997837 L34.7009265,13.7204422 L20.5773174,21.8605456 Z M-1.10675808e-15,26.2791251 L-1.10675808e-15,10.0002163 L17.3504632,0 L31.4727721,8.13967073 L24.4114009,12.2095061 L17.3504632,8.13967073 L7.06137112,14.069619 L14.1227422,18.1390217 L-1.10675808e-15,26.2791251 L-1.10675808e-15,26.2791251 Z" id="path-1"></path>
        <linearGradient x1="-14.014032%" y1="92.4131926%" x2="54.7566742%" y2="46.8484304%" id="linearGradient-3">
            <stop stop-color="#22415D" offset="0%"></stop>
            <stop stop-color="#24BA9E" offset="100%"></stop>
        </linearGradient>
    </defs>
    <g id="Redesign" stroke="none" stroke-width="1" fill="none" fill-rule="evenodd">
        <g id="Scan" transform="translate(-346.000000, -5165.000000)">
            <g id="Footer" transform="translate(0.000000, 4863.000000)">
                <g id="Group" transform="translate(346.000000, 302.000000)">
                    <polyline id="Fill-1" fill="#25BB9E" points="167.567568 11.8560024 167.567568 8.42221405 161.922198 8.42221405 161.922198 15.1097938 167.567568 11.8560024"></polyline>
                    <path d="M161.922198,18.0598403 L161.922198,31.6240832 L167.567568,31.6240832 L167.567568,14.8060489 L161.922198,18.0598403 Z M104.833969,24.761266 L104.832235,24.761266 L104.809263,24.7465547 C103.824087,26.1190317 102.086483,27.1012267 99.8890151,27.1012267 C96.0163566,27.1012267 93.2918428,24.217381 93.2918428,19.9887502 C93.2918428,15.8929537 96.0805036,12.8780045 99.9874027,12.8780045 C101.75968,12.8780045 103.631646,13.5681371 104.683136,15.0111416 L104.68487,15.0094109 L109.344196,12.3254657 C107.36084,9.19109534 103.499884,7.82943556 99.7906274,7.79871493 C92.6989165,7.79871493 87.1853085,12.5517599 87.1853085,19.9887502 C87.1853085,27.2647816 92.5359485,32.2458516 99.6918064,32.2458516 C103.498151,32.3124851 107.490001,30.5717933 109.44085,27.4175194 L104.833969,24.761266 Z M53.1310531,17.5116284 C50.9322846,16.8232265 49.5522573,16.3312637 49.5522573,14.7917703 C49.5522573,13.0277135 51.2196459,12.506328 52.6304464,12.4669537 L52.6308799,12.4669537 C54.4018572,12.4608961 55.8265274,13.5793869 56.0774809,14.9579214 L60.3787973,12.4799342 C59.0802539,9.45286978 55.5586703,7.78097484 52.2936747,7.85799277 C48.1449241,8.04967224 43.9077547,10.2139627 43.9077547,15.1197456 C43.9077547,19.3150596 46.8953579,20.8203708 49.8500207,21.7727106 C52.9013375,22.7549056 54.6749154,23.3122039 54.6749154,25.081453 C54.6749154,26.9506523 53.1639935,27.604872 51.4588968,27.604872 C51.0371737,27.5949203 48.9380931,27.5062198 47.82809,25.9485538 L43.1241211,28.6619216 C44.5552927,31.4778357 49.9163349,32.4171949 51.6955473,32.223352 L51.694247,32.2216213 C56.19884,32.1415745 60.354092,29.741038 60.354092,24.4912706 C60.354092,19.8710599 56.2829246,18.5267075 53.1310531,17.5116284 Z M147.041828,12.9437726 L144.053791,12.9437726 L144.053791,18.35147 L146.713291,18.35147 C148.520243,18.35147 150.784025,17.8923912 150.784025,15.5338252 C150.784025,13.3708327 148.715284,12.9437726 147.041828,12.9437726 Z M151.014174,31.6240832 L145.991204,22.4152478 L144.088465,22.4152478 L144.088465,31.6240832 L138.57399,31.6240832 L138.57399,8.42264673 L147.434945,8.42264673 C151.901396,8.42264673 156.333174,10.1261277 156.333174,15.435173 C156.333174,18.5487744 154.494149,20.7771023 151.505679,21.6948273 L157.578839,31.6240832 L151.014174,31.6240832 Z M123.207316,32.2480151 C117.099915,32.2480151 113.293571,28.4451464 113.293571,22.8747593 L113.293571,8.42307942 L118.872193,8.42307942 L118.872193,22.4161132 C118.872193,24.9070809 120.088385,27.2007442 123.239823,27.2007442 C126.423335,27.2007442 127.60442,24.9070809 127.60442,22.4161132 L127.60442,8.42307942 L133.217716,8.42307942 L133.217716,22.8747593 C133.217716,28.4451464 129.280477,32.2480151 123.207316,32.2480151 Z M73.7018691,32.2480151 C67.5940345,32.2480151 63.7876902,28.4451464 63.7876902,22.8747593 L63.7876902,8.42307942 L69.3663121,8.42307942 L69.3663121,22.4161132 C69.3663121,24.9070809 70.5825045,27.2007442 73.7339426,27.2007442 C76.9174542,27.2007442 78.0989726,24.9070809 78.0989726,22.4161132 L78.0989726,8.42307942 L83.7122685,8.42307942 L83.7122685,22.8747593 C83.7122685,28.4451464 79.7745963,32.2480151 73.7018691,32.2480151 L73.7018691,32.2480151 Z" id="Fill-2" fill="#FFFFFF"></path>
                    <g id="Group-5">
                        <mask id="mask-2" fill="white">
                            <use xlink:href="#path-1"></use>
                        </mask>
                        <g id="Clip-4"></g>
                        <path d="M20.5773174,21.8605456 L27.639122,25.930381 L17.3504632,31.8603293 L10.2890921,27.7904939 L3.22772101,31.8603293 L17.3504632,40 L34.7004931,29.9997837 L34.7009265,13.7204422 L20.5773174,21.8605456 Z M-1.10675808e-15,26.2791251 L-1.10675808e-15,10.0002163 L17.3504632,0 L31.4727721,8.13967073 L24.4114009,12.2095061 L17.3504632,8.13967073 L7.06137112,14.069619 L14.1227422,18.1390217 L-1.10675808e-15,26.2791251 L-1.10675808e-15,26.2791251 Z" id="Fill-3" fill="url(#linearGradient-3)" mask="url(#mask-2)"></path>
                    </g>
                </g>
            </g>
        </g>
    </g>
</svg>